/* XPM */
static char *a07c41b722e04bbfb7378d5574804266CpMy9ycuTtoeatWE[] = {
/* columns rows colors chars-per-pixel */
"32 32 43 1 ",
"  c None",
". c black",
"X c #010000",
"o c #000100",
"O c #010100",
"+ c #000001",
"@ c #010001",
"# c #000101",
"$ c #272627",
"% c #262727",
"& c #272727",
"* c #333332",
"= c #333233",
"- c gray20",
"; c gray25",
": c #414040",
"> c #404140",
", c #767676",
"< c #777676",
"1 c #767776",
"2 c #777776",
"3 c #767677",
"4 c #767777",
"5 c #E06F8B",
"6 c #9A9A9A",
"7 c #9D9C9C",
"8 c #9D9D9C",
"9 c #9C9C9D",
"0 c #9D9C9D",
"q c #9C9D9D",
"w c #9D9D9D",
"e c #9F9E9F",
"r c #AE9198",
"t c #A8A9A8",
"y c #A9A8A9",
"u c #A9A9A9",
"i c #BEBFBF",
"p c #C0C1C1",
"a c #C1C1C1",
"s c #CCCCCD",
"d c #CDCCCD",
"f c #CDCDCD",
"g c white",
/* pixels */
"                                ",
"                                ",
"                 ....           ",
"                 .ff6           ",
"                 .8ey-          ",
"         ....     &8y-.         ",
"         .0pd-.    388.         ",
"         .8e8p6    .883.        ",
"          &898y-    &89&.       ",
"           .e88p......&e.       ",
"           .&889e88pddfs3       ",
"            .38e8989e889d-      ",
"             .883...&08ey-      ",
"             88e>ggg&8e64..     ",
"             28&gg..&e88>g.     ",
"            &88&ggi.&888>>.     ",
"      ...  .89q&gg..&e98>>.     ",
"      -s6  489e&gg..&898;;.     ",
"     .e96 &qe98&gggg&888;>.     ",
"     4886.q9q98&ggg>99e83 .     ",
"    &889648899r5....88338&5     ",
"    &ee9&888e88888e83.&&8p.     ",
"    &88&998e98888e988008ep.     ",
"     ..48e8899e988&8e8088&.     ",
"      &888ee98e9893+88883..     ",
"     .e89e969e888e8&e8e8&83     ",
"     .888888988ee98&....8e3     ",
"     .9ee83....+..... .....     ",
"     .&88&.33.                  ",
"      ..8& ..                   ",
"       ..                       ",
"                                "
};
