/* XPM */
static char *_c73cef9df4041ebb449bdeaee6d8fcbxP5B9urIcH1R7qUE[] = {
/* columns rows colors chars-per-pixel */
"32 32 111 2 ",
"   c None",
".  c #1B2C35",
"X  c #1E2E38",
"o  c #1E323D",
"O  c #232C3B",
"+  c #1F3440",
"@  c #2E2B43",
"#  c #302A44",
"$  c #352A48",
"%  c #3C2A4E",
"&  c #203743",
"*  c #213946",
"=  c #243D4C",
"-  c #402950",
";  c #52295C",
":  c #5B2763",
">  c #473762",
",  c #67276C",
"<  c #68276D",
"1  c #6E2671",
"2  c #752676",
"3  c #304048",
"4  c #264354",
"5  c #2A4857",
"6  c #274759",
"7  c #28475A",
"8  c #2A4A5D",
"9  c #374E5A",
"0  c #3A5059",
"q  c #2B4E63",
"w  c #2D5165",
"e  c #2D5369",
"r  c #2F586E",
"t  c #34576B",
"y  c #32586E",
"u  c #365571",
"i  c #325C75",
"p  c #34617B",
"a  c #555A56",
"s  c #5B5C56",
"d  c #356580",
"f  c #376884",
"g  c #386987",
"h  c #386A88",
"j  c #3B708F",
"k  c #3C7393",
"l  c #3F799B",
"z  c #407B9E",
"x  c #417EA1",
"c  c #872483",
"v  c #4F839F",
"b  c #5D899E",
"n  c #658A9D",
"m  c #6A8899",
"M  c #788B93",
"N  c #4481A4",
"B  c #4D82A0",
"V  c #4584AA",
"C  c #4788AF",
"Z  c #5A8FAD",
"A  c #4789B0",
"S  c #488CB3",
"D  c #4A8FB8",
"F  c #4C93BC",
"G  c #5595BB",
"H  c #6F93A3",
"J  c #7094A2",
"K  c #7997A2",
"L  c #6199B6",
"P  c #6C9BB6",
"I  c #6F9DB8",
"U  c #759EB0",
"Y  c #7AA1B0",
"T  c #868F94",
"R  c #949E98",
"E  c #9BA097",
"W  c #A5A496",
"Q  c #AEAD9E",
"!  c #B1AE9D",
"~  c #839FB0",
"^  c #8EA2AD",
"/  c #85A5B0",
"(  c #89ABB6",
")  c #A8ABA0",
"_  c #A4B1AC",
"`  c #B1B6BA",
"'  c #C4B49A",
"]  c #C9B698",
"[  c #CDB898",
"{  c #D2B997",
"}  c #DBBD97",
"|  c #DABF9A",
" . c #E1BF95",
".. c #E4C197",
"X. c #E0C098",
"o. c #DCC6A6",
"O. c #E6CBA5",
"+. c #EBCEAA",
"@. c #EED1AB",
"#. c #F7D1A4",
"$. c #F9D3A5",
"%. c #FED8A9",
"&. c #FFD8A9",
"*. c #FFD9A9",
"=. c #8EB2C7",
"-. c #99BACD",
";. c #AEC7D6",
":. c #AEC8D7",
">. c #D4E3EA",
",. c #D5E3EA",
"<. c #F9FBFC",
/* pixels */
"                                                                ",
"                                                                ",
"              . . . . . . . . o . . . . . . . . . . .           ",
"            . . + 8 e e e w + + e i i i i i i i i i e           ",
"          . . . 4 j v N z z 8 5 z F F F F F F F F F g o         ",
"        O ; : $ 4 j P :.m t M ^ Z S F F F F F F F F N g e .     ",
"        O , c - 4 h =.<.T 3 ` ,.I V F S V S F F F F A V t .     ",
"        . , c % 3 z =.<.T 3 ` ,.I V F h 8 l F F F F l q + .     ",
"        O ; , $ 4 j =.<.T 3 ` ,.P V F j 7 z F F F F l 8 * .     ",
"        . O @ O 4 j =.<.T 3 ` ,.P V D S N D F F F F D C e .     ",
"        . . O - > u n ;.m t Y -.Z V D F F F F F F F F F i .     ",
"          . # 2 2 $ w z N z N N x V F F G F F F F F F F i .     ",
"          . # 2 2 # w l N l x x x C D F F F F F F F F F i .     ",
"          . @ < 1 @ 8 z x N x x x V D F F D C A A A A A r .     ",
"          . O % % X q z x x x x x x V S F h q q q e q q = .     ",
"            . . . . 5 f k x x x V x V S F p = o . . . . . .     ",
"                  . o = p l v N S D D F F V h 6 .               ",
"                  . . . r v b K Y ( ( ( ( ( K 0 .               ",
"                      . r v E { O.@.+.@.@.@.[ a .               ",
"                    . . r v W X.#.%.%.%.&.&.} s .               ",
"              . . X o . r B W X.#.%.%.%.%.%.| s .               ",
"              . = p g g k v W X.#.%.%.%.%.%.| s .               ",
"              . 4 l C D C B E ] o.+.$.#.#.@.' a .               ",
"              . o 4 p N N B B H Y _ | ...._ H 9 .               ",
"              . . . 6 d k x N V D P Q ! Q Y N 8 .               ",
"                  . X * i N C F F G L G G G V 6 .               ",
"                  . . . r N S A j g g l S D V 8 .               ",
"                      . r N S x 5 X . e v S N 8 .               ",
"                      . i z g y 4 . . e l h r 4                 ",
"                      . e h 6 .     . q k 8 .                   ",
"                      . * 6 =       . * 8 4                     ",
"                      . . .         . . .                       "
};
