/* XPM */
static char *da966471cb1b43cd99250a38f54f806cnA74Zg78pgGUyVzj[] = {
/* columns rows colors chars-per-pixel */
"32 32 58 1 ",
"  c None",
". c #74C856",
"X c #75C856",
"o c #74C956",
"O c #75C956",
"+ c #74C857",
"@ c #75C857",
"# c #74C957",
"$ c #75C957",
"% c #77C857",
"& c #76C957",
"* c #79C956",
"= c #78C857",
"- c #78C957",
"; c #79C957",
": c #7DC759",
"> c #79C858",
", c #79C859",
"< c #7AC958",
"1 c #7AC859",
"2 c #7AC959",
"3 c #7DC958",
"4 c #B9BE6F",
"5 c #BFBD70",
"6 c #BEBC71",
"7 c #C6BE74",
"8 c #C6BF74",
"9 c #D2B978",
"0 c #D2B979",
"q c #8BC55E",
"w c #8AC55F",
"e c #8CC55F",
"r c #8DC55F",
"t c #8CC95E",
"y c #8DC95F",
"u c #9CC264",
"i c #A1C166",
"p c #ACC06A",
"a c #ADC06A",
"s c #ACC06B",
"d c #AFC86B",
"f c #AFC96B",
"g c #BCC970",
"h c #C9CA74",
"j c #C9CB74",
"k c #E9B382",
"l c #F2B285",
"z c #F2B684",
"x c #F3B984",
"c c #F3BB85",
"v c #F5BC85",
"b c #F5BF84",
"n c #F4BE85",
"m c #F0C982",
"M c #F8CB83",
"N c #F8CA85",
"B c #F8CB85",
"V c #F9CB85",
/* pixels */
"OOO+OO+OOO%Oo%OO%OOOOo+OOOOoOOOO",
"OOO+OOOOOO..oo+OoOOOOOOOO+OOOOOO",
"OOOOOOOOOOoo.OOOOOO%OOoOOOOOOOOO",
"OOoOO+OOOOooOOOOoo.oOO+OOOOOOoOO",
"OOOOOO+OOOO%oooOOOOOOOOOO+OOOOOO",
"OOOOOOOOOOOOO%OOOOOO+OoO%OOOOOoO",
"OOOO+OOOOOOOO%..OOOOOOOOoOOOOOo.",
"OOOO+OOOOOOOoo..OOOOOOOOOOOOOOOO",
"OOOOOOOOOO>>,,.%OOO=@o..OOOOOOOO",
"OOOoOOOO+ya8ha%.q>r4z4@.OOOOOOOO",
"OOOOOOOOixnBBxrOkelnNn4uoOO+OOOO",
"OOoOOOOO5BB          Nm5OOOOOOO+",
"OOOOOOOO*gB          Mg*O+OOOOOO",
"OOOOOOOOOyB          VyOOOOOOOoO",
"+O+O+OOOO>y          y>OOOOOO++O",
"+OOOOOOOOqk          krOOOOOOOO+",
"OOOOO+OOoOO          OOO+OOOOOOO",
"+OOOOOOOOrr          ee+OOOOOOOO",
"OOOOOOOO>0n          n0>OOOOOOOO",
"OOOOOO+OOyV          VyOOOOO+OOO",
"OOOOOOOO>jV          Vj>OOOO*OOO",
"OOOOOOOO>fBMBVyOmyBVBNf>OOOO+OOO",
"OOOOOOOOO>fjjf>Oy>ygBf>+OOOOOOOO",
"OOOOOOOOOO*>>>OOOOO*3OOOO%O%OOOO",
"O++OOOOOoOO+OoOOoOooooOOOOOOOOOO",
"OOOO+OOOOOOOOOOOOOo%Oo%%OOOOOOOO",
"OOOOOOO+OOOOOOOOOoOOOOOO%OOOOOOO",
"OOOOOOO*OOOoOOOOOOOOOOOOooOOOOOO",
"OOOOOoOOOOOOOOOOOOOOOOOOOOOOOOOO",
"OOOOOOOOOOOOOOOOOOOOOOOOOO++OOOO",
"OOOOOO+OOOOOOOOOOOOOOOOOOOOOoOOO",
"OO+OOO+OOOOO+OOOO+O+OOO+OOOOOO@O"
};
