/* XPM */
static char *_b2cf04a4f014108d1ed3bce71e4602bxsJVsW3lsfZNMTrw[] = {
/* columns rows colors chars-per-pixel */
"32 32 52 1 ",
"  c #75C856",
". c #74C956",
"X c #75C956",
"o c #75C957",
"O c #7CC958",
"+ c #AEBF6B",
"@ c #B1BE6C",
"# c #B6BD6E",
"$ c #BBBC70",
"% c #C5BA74",
"& c #D3B679",
"* c #D3B779",
"= c #DAB67B",
"- c #E3BB7E",
"; c #88C55C",
": c #89C55C",
"> c #8BC45E",
", c #8BC55E",
"< c #8CC55F",
"1 c #8CC85E",
"2 c #8CC95E",
"3 c #94C262",
"4 c #90C460",
"5 c #96C962",
"6 c #9BC964",
"7 c #A1C166",
"8 c #A2C967",
"9 c #A3C967",
"0 c #A5C168",
"q c #B1C96B",
"w c #BAC86F",
"e c #BAC96F",
"r c #C9CA74",
"t c #D9CA7A",
"y c #D9CA7B",
"u c #DFCA7C",
"i c #E4C97E",
"p c #E8CA7F",
"a c #E9B281",
"s c #F1B983",
"d c #EEC182",
"f c #EEC382",
"g c #ECC781",
"h c #F3C882",
"j c #F0CA82",
"k c #F1CB82",
"l c #F3CA82",
"z c #F7CA85",
"x c #F8C885",
"c c #F8CA84",
"v c #F9CA85",
"b c #F8CB85",
/* pixels */
"zjroej1lpcvlll2Xp2pcccpkk2pr.rpb",
"y.o.oo.yOiiqq5XXXXo9ii2XtXXX...t",
"..ooo..oXXXX.XXXooXoXX....XXoo..",
"....o...XXXX.oXXooXoXoo XXXXXooo",
"#Xo.ooooXXXXXXXXooXXXX  ..  XXXw",
"pXo ooXXXXXXXXXXXXXXXXXX    XX p",
"4 .o XXXXXo.  XXXXXXXXXX       <",
"-&.  XXXXoo.. XXXXXXXXXX      =-",
"h...XXXXXXXXXXXXXXooXXoo  XXXXXp",
"h< oX XXXXXXXXXXXXX.XXXoo XXXX:c",
"x-4o  XXXXXXXXXXXoX XX..ooXX.3-v",
"cp@.  XXXXXXXXXXXXXXXX  ooXX.0pc",
"p9oXXoXX  XX .XXXXXXXXXXXXXo.o9l",
"l ooXXXX. XXXoXXXXooXXXX XX ..oj",
"4...oXXX.oXXXXXXXXXXXXXXXXoXooo1",
"p..oXXXX.oXXXXXXXXXXXXXXXXoo.oop",
"....XXXXXXXXXX..XXXXXXoXXXXXXXX ",
"1<..XXXXXXX Xoo.oXXXXoXXXXXXXX:<",
"s$..XX XXXXXXX..XXXXXXXXXXoXoo$s",
"j...XX XXXXXXX..XXXXXXoXXXXXXoop",
"l@..XXXXXXXXXX.XXXXXoXXXXoooX #p",
"cf@.XXXXXX.X..XX. XXXXXXXoo.X#pv",
"bi:.XXXXXXooX.XXoXoXXXXXXX.. :pv",
"jO..XXXXXoooXXXXoXXXXXXX      ;p",
"j*oXXXXX  XXXXXXXXXX  XX .XXXX&p",
"..ooXXXX  XXXXXXXXXX XXXXoXXXXoo",
"6.ooXXXX   XXXXXXXXX  XXXX o  o9",
"e.ooXXoX    XXXXXXXX  XooX .   e",
"XXXoXXXX... XXXXXXXXo.oXXXoo  XX",
" XXoXX    . XXXXXXXX.oooXXoo  XX",
"tXoo X &;==@#3XXooX7==<o&XO.XXX*",
"vp% $-4ppxccc-1op5ppccllp:-$Xrpc"
};
