/* XPM */
static char *result[] = {
/* columns rows colors chars-per-pixel */
"16 16 8 1 ",
"  c #1C1117",
". c #30291F",
"X c #3B3328",
"o c #505436",
"O c #686E46",
"+ c #D1D1C2",
"@ c #F0F0DD",
"# c None",
/* pixels */
"################",
"###          ###",
"### OOOOOOOo ###",
"##        Oo ###",
"## @@@@@@ Oo ###",
"##  @@  @     ##",
"##  @@  @ XXX ##",
"## +@@++@     ##",
"## @  @   Oo ###",
"##      OOOo ###",
"### oooooooo ###",
"### ........ ###",
"### XXXXXXXX ###",
"### XXXXXXXX ###",
"### .      . ###",
"###   ####   ###"
};
