/* XPM */
static char *a602008188db4668989c832a2fa2fecbspS51B6Pv09vsSRm[] = {
/* columns rows colors chars-per-pixel */
"32 32 245 2 ",
"   c None",
".  c #54B741",
"X  c #54B742",
"o  c #55B742",
"O  c #55B643",
"+  c #54B743",
"@  c #55B743",
"#  c #53B644",
"$  c #53B744",
"%  c #53B645",
"&  c #52B547",
"*  c #53B646",
"=  c #54B840",
"-  c #55B840",
";  c #55B940",
":  c #55B841",
">  c #55B941",
",  c #56B840",
"<  c #56B940",
"1  c #57B841",
"2  c #57B941",
"3  c #55B842",
"4  c #57B942",
"5  c #58B942",
"6  c #58BA42",
"7  c #59BA43",
"8  c #59BB43",
"9  c #5ABA43",
"0  c #5ABB43",
"q  c #5BBA44",
"w  c #5BBB44",
"e  c #5DBC46",
"r  c #5FBD47",
"t  c #5FBE46",
"y  c #5FBE47",
"u  c #52B449",
"i  c #53B449",
"p  c #52B549",
"a  c #51B44B",
"s  c #51B34C",
"d  c #50B34D",
"f  c #50B34E",
"g  c #50B24F",
"h  c #59B948",
"j  c #4DAE56",
"k  c #4DAF57",
"l  c #4BAE5B",
"z  c #4CAE58",
"x  c #4CAE59",
"c  c #4DAE59",
"v  c #4CAF59",
"b  c #4CAE5A",
"n  c #4CAE5B",
"m  c #4BAD5C",
"M  c #4BAE5C",
"N  c #4AAC5E",
"B  c #4AAD5E",
"V  c #4AAC5F",
"C  c #4FB250",
"Z  c #4FB350",
"A  c #4FB152",
"S  c #4EB153",
"D  c #4FB153",
"F  c #4EB054",
"G  c #4EB055",
"H  c #4DB056",
"J  c #4EB05B",
"K  c #50B250",
"L  c #58B850",
"P  c #59B950",
"I  c #5FBC52",
"U  c #54B35C",
"Y  c #54B35F",
"T  c #55B35F",
"R  c #5BB75E",
"E  c #62BE49",
"W  c #62BF49",
"Q  c #63BF49",
"!  c #63BF4A",
"~  c #63BF4B",
"^  c #478F7C",
"/  c #469577",
"(  c #479676",
")  c #479776",
"_  c #469677",
"`  c #479777",
"'  c #479A73",
"]  c #469B73",
"[  c #479B73",
"{  c #479E71",
"}  c #479D72",
"|  c #479D73",
" . c #479E72",
".. c #479874",
"X. c #469974",
"o. c #479974",
"O. c #469B74",
"+. c #479B74",
"@. c #489A74",
"#. c #47917A",
"$. c #47927A",
"%. c #47907C",
"&. c #47907D",
"*. c #47917D",
"=. c #47917F",
"-. c #48917C",
";. c #48937C",
":. c #48947C",
">. c #49947C",
",. c #48957C",
"<. c #499E78",
"1. c #489F78",
"2. c #499F78",
"3. c #489F79",
"4. c #47AA64",
"5. c #47A966",
"6. c #47A867",
"7. c #46A967",
"8. c #47A967",
"9. c #47AA67",
"0. c #49AB61",
"q. c #49AB62",
"w. c #4AAC60",
"e. c #4AAD60",
"r. c #48AA64",
"t. c #49AA64",
"y. c #48AA65",
"u. c #48A867",
"i. c #46A668",
"p. c #47A668",
"a. c #46A669",
"s. c #47A669",
"d. c #47A769",
"f. c #47A56A",
"g. c #47A46B",
"h. c #46A56B",
"j. c #47A56B",
"k. c #46A66A",
"l. c #47A66A",
"z. c #47A06D",
"x. c #47A16D",
"c. c #47A26C",
"v. c #47A36C",
"b. c #46A868",
"n. c #47A868",
"m. c #47A968",
"M. c #4AA17C",
"N. c #4BA17C",
"B. c #4BA47C",
"V. c #4BA57C",
"C. c #4BA47D",
"Z. c #4BA57D",
"A. c #4CA57C",
"S. c #4DA57C",
"D. c #4CA67C",
"F. c #4CA77C",
"G. c #4DAB7C",
"H. c #4DAB7D",
"J. c #4FB07B",
"K. c #4EB07C",
"L. c #4FB07C",
"P. c #4EB17C",
"I. c #4EB07D",
"U. c #63C04A",
"Y. c #65C04A",
"T. c #64C04B",
"R. c #65C04B",
"E. c #65C14B",
"W. c #65C04D",
"Q. c #68C24D",
"!. c #69C24D",
"~. c #69C24E",
"^. c #69C24F",
"/. c #6AC34F",
"(. c #6BC34F",
"). c #6CC44E",
"_. c #6DC44E",
"`. c #68C153",
"'. c #6CC450",
"]. c #6DC450",
"[. c #6EC551",
"{. c #70C652",
"}. c #70C653",
"|. c #71C653",
" X c #72C754",
".X c #73C756",
"XX c #73C757",
"oX c #73C854",
"OX c #72C855",
"+X c #73C855",
"@X c #73C955",
"#X c #73C856",
"$X c #74C855",
"%X c #75C856",
"&X c #74C956",
"*X c #75C956",
"=X c #75C857",
"-X c #75C957",
";X c #76C956",
":X c #77CA56",
">X c #77CA57",
",X c #78CA57",
"<X c #78CB57",
"1X c #79CB57",
"2X c #7ACC58",
"3X c #7BCC58",
"4X c #7ECE59",
"5X c #7FCE59",
"6X c #80CF5A",
"7X c #81CF5A",
"8X c #82D05A",
"9X c #83D05A",
"0X c #83D15B",
"qX c #86D25B",
"wX c #87D35B",
"eX c #85D15C",
"rX c #85D15D",
"tX c #86D25C",
"yX c #8DD55E",
"uX c #8DD65F",
"iX c #8DD75F",
"pX c #97DB62",
"aX c #98DB62",
"sX c #99DB62",
"dX c #9EDE65",
"fX c #9FDF65",
"gX c #A0DE65",
"hX c #A0DF65",
"jX c #A1E066",
"kX c #A6E368",
"lX c #A7E368",
"zX c #A8E368",
"xX c #AFE76B",
"cX c #B1E86A",
"vX c #B1E86B",
"bX c #B2E96C",
"nX c #B3E96C",
"mX c #B4EA6C",
"MX c #B6EB6D",
"NX c #B9EC6E",
"BX c #BBEE6F",
"VX c #BCEE6F",
"CX c #BEEE70",
"ZX c #BEEF70",
"AX c #BEEF71",
/* pixels */
"                                                                ",
"                                                                ",
"                      m.m.7.y.y.y.y.y.m.u.                      ",
"                      J n n n T T n n n M                       ",
"                u.u.t.Z $ * h '.`.h X # C 7.y.y.                ",
"              n j T R I U.E !.wXtX!.E E I R U n n               ",
"            7.F = W..X.X&X&X8XlXzX8X&X.X&X%X~ = F 7.            ",
"          n F L Q [.&X&X1XiXjXnXMXhXiX1X&X&X[.R.L F M           ",
"        m.j = R.&X&X&X&X7XkXCXZXCXCXzX7X1X&X&X&XR.= J 7.        ",
"      7.m.F $ W.&X&X1XiXjXnXZXZXCXCXnXhXiX1X&X%XW.o n u.7.      ",
"    7.y.y.j o Q  X.X3XfXNXVXCXCXCXZXCXNXfX1X&X$XE * K y.7.m.    ",
"    7.V K p = 9 E '.1XtXaXvXCXVXZXZXcXaX7X1X(.E w = p K V y.    ",
"    7.z # = ; ; 9 !.%X%X3XhXMXVXZXMXfX3X&X%X!.9 = = o # n y.    ",
"-.@.j.z # = ; E !. X1X&X1XtXaXcXxXpXtX2X&X%X X(.E = = # j l.@.-.",
"-.( j.z # = = R.&X&X1X&X&X&X7XhXhX7X&X&X&X&X&X&XR.; ; X n j.` -.",
"^ ( j.J # = = R.&X&X&X&X&X&X1XeXeX2X&X&X&X1X&X&XQ = o o n j.( ^ ",
"%.` l.n X ; ; R.&X&X&X X[.%X&X1X&X&X$X_. X&X&X&XQ ; = * n l.` %.",
"%...c.n # ; ; R.&X&X&XW.e _.&X&X&X&X(.E R.&X&X%XR.; = # n j.` %.",
"%.` l.V C # = E (.(.!.e 9 (.&X&X X_.R.= e !.(.(.E = # C V l.` %.",
"^ ..l.7.0.j * = 9 9 9 = 9 (.&X&X[.E = 9 = 9 9 9 ; o F 0.0.l.` %.",
"%.( } z.7.F X = = = = 9 9 E W.!.U.9 ; = = = = , = * j 7.c.{ ( *.",
"    #.} j.F X = = = = ; = 9 9 = = ; o o = = , = = = j 6.' %.    ",
"    *.] j.V F i = = = u d i = = = 9 # d i o ; , i K V j...#.    ",
"    ^ @.j.m.u.K = o o j 0.d = = = = d 0.j * ; = F u.7.j...*.    ",
"    N.1.| v.u.V F F F w.0.d = = # K n 0.w.j j C V u.z.} 1.N.    ",
"    L.A.:...j.m.m.7.m.7.0.d X = d 0.y.7.7.7.7.7.m.u.] ,.A.L.    ",
"    L.G.B.M.} ] ] z.7.7.7.V F F n y.7.y.y.m.c.] ..+.M.B.G.J.    ",
"    K.J.K.A.:.-.,.z.j.j.j.m.j.j.j.j.j.6.j.j.} ,.:.:.V.K.L.K.    ",
"      L.K.G.F.B.V.3.............] ] ] ......M.B.A.A.G.J.L.      ",
"        K.J.J.G.P.M.,.,.,.,.,.,.>.>.>.>.,.,.M.K.L.J.L.K.        ",
"              L.P.G.V.V.F.F.F.F.A.V.B.F.V.V.G.L.K.              ",
"                L.L.L.P.P.L.L.L.L.L.K.K.L.L.L.L.                "
};
